<mxfile host="app.diagrams.net" modified="2024-05-19T13:41:50.587Z" agent="Mozilla/5.0 (Windows NT 10.0; Win64; x64) AppleWebKit/537.36 (KHTML, like Gecko) Chrome/123.0.0.0 Safari/537.36 OPR/109.0.0.0" etag="i-iJDjoMWQ0SZ_iEtXXi" version="24.4.2" type="device" pages="3">
  <diagram name="Страница — 1" id="L1xAMljhHgcdpxo69MAB">
    <mxGraphModel dx="2408" dy="1117" grid="0" gridSize="10" guides="1" tooltips="1" connect="1" arrows="1" fold="1" page="0" pageScale="1" pageWidth="827" pageHeight="1169" math="0" shadow="0">
      <root>
        <mxCell id="0" />
        <mxCell id="1" parent="0" />
        <mxCell id="gKCU9rujwe1MHxnmEOaV-2" value="" style="swimlane;startSize=0;" parent="1" vertex="1">
          <mxGeometry x="-811" y="-41" width="116" height="78" as="geometry" />
        </mxCell>
        <mxCell id="gKCU9rujwe1MHxnmEOaV-3" value="Кэти Флам" style="text;html=1;align=center;verticalAlign=middle;whiteSpace=wrap;rounded=0;fontSize=16;" parent="gKCU9rujwe1MHxnmEOaV-2" vertex="1">
          <mxGeometry x="19" y="37" width="65" height="30" as="geometry" />
        </mxCell>
        <mxCell id="gKCU9rujwe1MHxnmEOaV-5" value="" style="whiteSpace=wrap;html=1;aspect=fixed;" parent="gKCU9rujwe1MHxnmEOaV-2" vertex="1">
          <mxGeometry x="37" width="34" height="34" as="geometry" />
        </mxCell>
        <mxCell id="gKCU9rujwe1MHxnmEOaV-6" value="5" style="text;html=1;align=center;verticalAlign=middle;whiteSpace=wrap;rounded=0;fontSize=16;" parent="gKCU9rujwe1MHxnmEOaV-2" vertex="1">
          <mxGeometry x="21.5" y="2" width="60" height="32" as="geometry" />
        </mxCell>
        <mxCell id="gKCU9rujwe1MHxnmEOaV-11" value="" style="swimlane;startSize=0;" parent="1" vertex="1">
          <mxGeometry x="-716" y="255" width="116" height="78" as="geometry" />
        </mxCell>
        <mxCell id="gKCU9rujwe1MHxnmEOaV-12" value="Акира Натиро" style="text;html=1;align=center;verticalAlign=middle;whiteSpace=wrap;rounded=0;fontSize=16;" parent="gKCU9rujwe1MHxnmEOaV-11" vertex="1">
          <mxGeometry x="19" y="37" width="65" height="30" as="geometry" />
        </mxCell>
        <mxCell id="gKCU9rujwe1MHxnmEOaV-13" value="" style="whiteSpace=wrap;html=1;aspect=fixed;" parent="gKCU9rujwe1MHxnmEOaV-11" vertex="1">
          <mxGeometry x="37" width="34" height="34" as="geometry" />
        </mxCell>
        <mxCell id="gKCU9rujwe1MHxnmEOaV-14" value="6" style="text;html=1;align=center;verticalAlign=middle;whiteSpace=wrap;rounded=0;fontSize=16;" parent="gKCU9rujwe1MHxnmEOaV-11" vertex="1">
          <mxGeometry x="21.5" y="2" width="60" height="18" as="geometry" />
        </mxCell>
        <mxCell id="gKCU9rujwe1MHxnmEOaV-15" value="" style="swimlane;startSize=0;" parent="1" vertex="1">
          <mxGeometry x="-566" y="261" width="116" height="78" as="geometry" />
        </mxCell>
        <mxCell id="gKCU9rujwe1MHxnmEOaV-16" value="Фёдор достоевский" style="text;html=1;align=center;verticalAlign=middle;whiteSpace=wrap;rounded=0;fontSize=16;" parent="gKCU9rujwe1MHxnmEOaV-15" vertex="1">
          <mxGeometry x="19" y="37" width="65" height="30" as="geometry" />
        </mxCell>
        <mxCell id="gKCU9rujwe1MHxnmEOaV-17" value="" style="whiteSpace=wrap;html=1;aspect=fixed;" parent="gKCU9rujwe1MHxnmEOaV-15" vertex="1">
          <mxGeometry x="37" width="34" height="34" as="geometry" />
        </mxCell>
        <mxCell id="gKCU9rujwe1MHxnmEOaV-18" value="1" style="text;html=1;align=center;verticalAlign=middle;whiteSpace=wrap;rounded=0;fontSize=16;" parent="gKCU9rujwe1MHxnmEOaV-15" vertex="1">
          <mxGeometry x="21.5" y="2" width="60" height="30" as="geometry" />
        </mxCell>
        <mxCell id="gKCU9rujwe1MHxnmEOaV-20" value="" style="swimlane;startSize=0;" parent="1" vertex="1">
          <mxGeometry x="-655" y="-41" width="116" height="78" as="geometry" />
        </mxCell>
        <mxCell id="gKCU9rujwe1MHxnmEOaV-21" value="Иван Томкин" style="text;html=1;align=center;verticalAlign=middle;whiteSpace=wrap;rounded=0;fontSize=16;" parent="gKCU9rujwe1MHxnmEOaV-20" vertex="1">
          <mxGeometry x="19" y="37" width="65" height="30" as="geometry" />
        </mxCell>
        <mxCell id="gKCU9rujwe1MHxnmEOaV-22" value="" style="whiteSpace=wrap;html=1;aspect=fixed;" parent="gKCU9rujwe1MHxnmEOaV-20" vertex="1">
          <mxGeometry x="37" width="34" height="34" as="geometry" />
        </mxCell>
        <mxCell id="gKCU9rujwe1MHxnmEOaV-23" value="7" style="text;html=1;align=center;verticalAlign=middle;whiteSpace=wrap;rounded=0;fontSize=16;" parent="gKCU9rujwe1MHxnmEOaV-20" vertex="1">
          <mxGeometry x="21.5" y="2" width="60" height="30" as="geometry" />
        </mxCell>
        <mxCell id="gKCU9rujwe1MHxnmEOaV-26" value="" style="swimlane;startSize=0;" parent="1" vertex="1">
          <mxGeometry x="-869" y="257" width="116" height="78" as="geometry" />
        </mxCell>
        <mxCell id="gKCU9rujwe1MHxnmEOaV-27" value="Жанна Эсли" style="text;html=1;align=center;verticalAlign=middle;whiteSpace=wrap;rounded=0;fontSize=16;" parent="gKCU9rujwe1MHxnmEOaV-26" vertex="1">
          <mxGeometry x="19" y="37" width="65" height="30" as="geometry" />
        </mxCell>
        <mxCell id="gKCU9rujwe1MHxnmEOaV-28" value="" style="whiteSpace=wrap;html=1;aspect=fixed;" parent="gKCU9rujwe1MHxnmEOaV-26" vertex="1">
          <mxGeometry x="37" width="34" height="34" as="geometry" />
        </mxCell>
        <mxCell id="gKCU9rujwe1MHxnmEOaV-29" value="8" style="text;html=1;align=center;verticalAlign=middle;whiteSpace=wrap;rounded=0;fontSize=16;" parent="gKCU9rujwe1MHxnmEOaV-26" vertex="1">
          <mxGeometry x="21.5" y="2" width="60" height="30" as="geometry" />
        </mxCell>
        <mxCell id="Ha5N9nH4pzYjdirJid1R-59" style="edgeStyle=orthogonalEdgeStyle;rounded=0;orthogonalLoop=1;jettySize=auto;html=1;exitX=0.5;exitY=1;exitDx=0;exitDy=0;entryX=0.5;entryY=0;entryDx=0;entryDy=0;" edge="1" parent="1" source="gKCU9rujwe1MHxnmEOaV-30" target="Ha5N9nH4pzYjdirJid1R-18">
          <mxGeometry relative="1" as="geometry" />
        </mxCell>
        <mxCell id="Ha5N9nH4pzYjdirJid1R-60" style="edgeStyle=orthogonalEdgeStyle;rounded=0;orthogonalLoop=1;jettySize=auto;html=1;exitX=0.5;exitY=1;exitDx=0;exitDy=0;entryX=0.5;entryY=0;entryDx=0;entryDy=0;" edge="1" parent="1" source="gKCU9rujwe1MHxnmEOaV-30" target="Ha5N9nH4pzYjdirJid1R-26">
          <mxGeometry relative="1" as="geometry" />
        </mxCell>
        <mxCell id="gKCU9rujwe1MHxnmEOaV-30" value="" style="swimlane;startSize=0;" parent="1" vertex="1">
          <mxGeometry x="-405" y="266" width="116" height="78" as="geometry" />
        </mxCell>
        <mxCell id="gKCU9rujwe1MHxnmEOaV-31" value="Александр Пушкин" style="text;html=1;align=center;verticalAlign=middle;whiteSpace=wrap;rounded=0;fontSize=16;" parent="gKCU9rujwe1MHxnmEOaV-30" vertex="1">
          <mxGeometry x="19" y="37" width="65" height="30" as="geometry" />
        </mxCell>
        <mxCell id="gKCU9rujwe1MHxnmEOaV-32" value="" style="whiteSpace=wrap;html=1;aspect=fixed;" parent="gKCU9rujwe1MHxnmEOaV-30" vertex="1">
          <mxGeometry x="37" width="34" height="34" as="geometry" />
        </mxCell>
        <mxCell id="gKCU9rujwe1MHxnmEOaV-33" value="2" style="text;html=1;align=center;verticalAlign=middle;whiteSpace=wrap;rounded=0;fontSize=16;" parent="gKCU9rujwe1MHxnmEOaV-30" vertex="1">
          <mxGeometry x="21.5" y="2" width="60" height="30" as="geometry" />
        </mxCell>
        <mxCell id="gKCU9rujwe1MHxnmEOaV-34" value="" style="swimlane;startSize=0;" parent="1" vertex="1">
          <mxGeometry x="-1159" y="256" width="116" height="78" as="geometry" />
        </mxCell>
        <mxCell id="gKCU9rujwe1MHxnmEOaV-35" value="Катя Мышкина" style="text;html=1;align=center;verticalAlign=middle;whiteSpace=wrap;rounded=0;fontSize=16;" parent="gKCU9rujwe1MHxnmEOaV-34" vertex="1">
          <mxGeometry x="19" y="37" width="65" height="30" as="geometry" />
        </mxCell>
        <mxCell id="gKCU9rujwe1MHxnmEOaV-36" value="" style="whiteSpace=wrap;html=1;aspect=fixed;" parent="gKCU9rujwe1MHxnmEOaV-34" vertex="1">
          <mxGeometry x="37" width="34" height="34" as="geometry" />
        </mxCell>
        <mxCell id="gKCU9rujwe1MHxnmEOaV-37" value="9" style="text;html=1;align=center;verticalAlign=middle;whiteSpace=wrap;rounded=0;fontSize=16;" parent="gKCU9rujwe1MHxnmEOaV-34" vertex="1">
          <mxGeometry x="21.5" y="2" width="60" height="30" as="geometry" />
        </mxCell>
        <mxCell id="gKCU9rujwe1MHxnmEOaV-38" value="" style="swimlane;startSize=0;" parent="1" vertex="1">
          <mxGeometry x="-1018" y="257" width="116" height="78" as="geometry" />
        </mxCell>
        <mxCell id="gKCU9rujwe1MHxnmEOaV-39" value="Жук Олень" style="text;html=1;align=center;verticalAlign=middle;whiteSpace=wrap;rounded=0;fontSize=16;" parent="gKCU9rujwe1MHxnmEOaV-38" vertex="1">
          <mxGeometry x="19" y="37" width="65" height="30" as="geometry" />
        </mxCell>
        <mxCell id="gKCU9rujwe1MHxnmEOaV-40" value="" style="whiteSpace=wrap;html=1;aspect=fixed;" parent="gKCU9rujwe1MHxnmEOaV-38" vertex="1">
          <mxGeometry x="37" width="34" height="34" as="geometry" />
        </mxCell>
        <mxCell id="gKCU9rujwe1MHxnmEOaV-41" value="10" style="text;html=1;align=center;verticalAlign=middle;whiteSpace=wrap;rounded=0;fontSize=16;" parent="gKCU9rujwe1MHxnmEOaV-38" vertex="1">
          <mxGeometry x="21.5" y="2" width="60" height="30" as="geometry" />
        </mxCell>
        <mxCell id="gKCU9rujwe1MHxnmEOaV-42" value="" style="swimlane;startSize=0;" parent="1" vertex="1">
          <mxGeometry x="-1002" y="-56" width="116" height="78" as="geometry" />
        </mxCell>
        <mxCell id="gKCU9rujwe1MHxnmEOaV-43" value="Пелагея Антропова" style="text;html=1;align=center;verticalAlign=middle;whiteSpace=wrap;rounded=0;fontSize=16;" parent="gKCU9rujwe1MHxnmEOaV-42" vertex="1">
          <mxGeometry x="19" y="37" width="65" height="30" as="geometry" />
        </mxCell>
        <mxCell id="gKCU9rujwe1MHxnmEOaV-44" value="" style="whiteSpace=wrap;html=1;aspect=fixed;" parent="gKCU9rujwe1MHxnmEOaV-42" vertex="1">
          <mxGeometry x="37" width="34" height="34" as="geometry" />
        </mxCell>
        <mxCell id="gKCU9rujwe1MHxnmEOaV-45" value="4" style="text;html=1;align=center;verticalAlign=middle;whiteSpace=wrap;rounded=0;fontSize=16;" parent="gKCU9rujwe1MHxnmEOaV-42" vertex="1">
          <mxGeometry x="21.5" y="2" width="60" height="30" as="geometry" />
        </mxCell>
        <mxCell id="Ha5N9nH4pzYjdirJid1R-47" style="edgeStyle=orthogonalEdgeStyle;rounded=0;orthogonalLoop=1;jettySize=auto;html=1;exitX=0.25;exitY=1;exitDx=0;exitDy=0;entryX=0.5;entryY=1;entryDx=0;entryDy=0;" edge="1" parent="1" source="gKCU9rujwe1MHxnmEOaV-46" target="Ha5N9nH4pzYjdirJid1R-2">
          <mxGeometry relative="1" as="geometry" />
        </mxCell>
        <mxCell id="gKCU9rujwe1MHxnmEOaV-46" value="" style="swimlane;startSize=0;" parent="1" vertex="1">
          <mxGeometry x="-1153" y="-56" width="116" height="78" as="geometry" />
        </mxCell>
        <mxCell id="gKCU9rujwe1MHxnmEOaV-47" value="Анна Рэйн" style="text;html=1;align=center;verticalAlign=middle;whiteSpace=wrap;rounded=0;fontSize=16;" parent="1" vertex="1">
          <mxGeometry x="-1130" y="-14" width="65" height="30" as="geometry" />
        </mxCell>
        <mxCell id="gKCU9rujwe1MHxnmEOaV-48" value="" style="whiteSpace=wrap;html=1;aspect=fixed;" parent="1" vertex="1">
          <mxGeometry x="-1112" y="-51" width="34" height="34" as="geometry" />
        </mxCell>
        <mxCell id="gKCU9rujwe1MHxnmEOaV-49" value="3" style="text;html=1;align=center;verticalAlign=middle;whiteSpace=wrap;rounded=0;fontSize=16;" parent="1" vertex="1">
          <mxGeometry x="-1127.5" y="-49" width="60" height="30" as="geometry" />
        </mxCell>
        <mxCell id="Ha5N9nH4pzYjdirJid1R-40" style="edgeStyle=orthogonalEdgeStyle;rounded=0;orthogonalLoop=1;jettySize=auto;html=1;exitX=1;exitY=0;exitDx=0;exitDy=0;entryX=0.5;entryY=1;entryDx=0;entryDy=0;" edge="1" parent="1" source="gKCU9rujwe1MHxnmEOaV-50" target="gKCU9rujwe1MHxnmEOaV-20">
          <mxGeometry relative="1" as="geometry" />
        </mxCell>
        <mxCell id="gKCU9rujwe1MHxnmEOaV-50" value="" style="ellipse;whiteSpace=wrap;html=1;aspect=fixed;" parent="1" vertex="1">
          <mxGeometry x="-764" y="73" width="115" height="115" as="geometry" />
        </mxCell>
        <mxCell id="gKCU9rujwe1MHxnmEOaV-51" value="" style="ellipse;whiteSpace=wrap;html=1;aspect=fixed;" parent="1" vertex="1">
          <mxGeometry x="-740.5" y="81.5" width="39" height="39" as="geometry" />
        </mxCell>
        <mxCell id="gKCU9rujwe1MHxnmEOaV-52" value="2" style="text;html=1;align=center;verticalAlign=middle;whiteSpace=wrap;rounded=0;fontSize=16;" parent="1" vertex="1">
          <mxGeometry x="-747.5" y="86" width="60" height="30" as="geometry" />
        </mxCell>
        <mxCell id="gKCU9rujwe1MHxnmEOaV-53" value="Барышня Крестьянка" style="text;html=1;align=center;verticalAlign=middle;whiteSpace=wrap;rounded=0;fontSize=16;" parent="1" vertex="1">
          <mxGeometry x="-735.5" y="123.5" width="51" height="28" as="geometry" />
        </mxCell>
        <mxCell id="Ha5N9nH4pzYjdirJid1R-43" style="edgeStyle=orthogonalEdgeStyle;rounded=0;orthogonalLoop=1;jettySize=auto;html=1;exitX=1;exitY=0;exitDx=0;exitDy=0;entryX=0.5;entryY=1;entryDx=0;entryDy=0;" edge="1" parent="1" source="gKCU9rujwe1MHxnmEOaV-56" target="gKCU9rujwe1MHxnmEOaV-42">
          <mxGeometry relative="1" as="geometry" />
        </mxCell>
        <mxCell id="gKCU9rujwe1MHxnmEOaV-56" value="" style="ellipse;whiteSpace=wrap;html=1;aspect=fixed;" parent="1" vertex="1">
          <mxGeometry x="-1053" y="80" width="115" height="115" as="geometry" />
        </mxCell>
        <mxCell id="gKCU9rujwe1MHxnmEOaV-57" value="" style="ellipse;whiteSpace=wrap;html=1;aspect=fixed;" parent="1" vertex="1">
          <mxGeometry x="-1026" y="97" width="39" height="39" as="geometry" />
        </mxCell>
        <mxCell id="Ha5N9nH4pzYjdirJid1R-42" style="edgeStyle=orthogonalEdgeStyle;rounded=0;orthogonalLoop=1;jettySize=auto;html=1;exitX=0;exitY=0;exitDx=0;exitDy=0;entryX=0.5;entryY=1;entryDx=0;entryDy=0;" edge="1" parent="1" source="gKCU9rujwe1MHxnmEOaV-58" target="gKCU9rujwe1MHxnmEOaV-46">
          <mxGeometry relative="1" as="geometry" />
        </mxCell>
        <mxCell id="gKCU9rujwe1MHxnmEOaV-58" value="1" style="text;html=1;align=center;verticalAlign=middle;whiteSpace=wrap;rounded=0;fontSize=16;" parent="1" vertex="1">
          <mxGeometry x="-1033" y="101.5" width="60" height="30" as="geometry" />
        </mxCell>
        <mxCell id="gKCU9rujwe1MHxnmEOaV-59" value="Преступление и Наказание" style="text;html=1;align=center;verticalAlign=middle;whiteSpace=wrap;rounded=0;fontSize=16;" parent="1" vertex="1">
          <mxGeometry x="-1021" y="139" width="51" height="28" as="geometry" />
        </mxCell>
        <mxCell id="Ha5N9nH4pzYjdirJid1R-41" style="edgeStyle=orthogonalEdgeStyle;rounded=0;orthogonalLoop=1;jettySize=auto;html=1;exitX=0;exitY=0;exitDx=0;exitDy=0;entryX=0.5;entryY=1;entryDx=0;entryDy=0;" edge="1" parent="1" source="Ha5N9nH4pzYjdirJid1R-2" target="gKCU9rujwe1MHxnmEOaV-20">
          <mxGeometry relative="1" as="geometry" />
        </mxCell>
        <mxCell id="Ha5N9nH4pzYjdirJid1R-53" style="edgeStyle=orthogonalEdgeStyle;rounded=0;orthogonalLoop=1;jettySize=auto;html=1;exitX=0.5;exitY=1;exitDx=0;exitDy=0;" edge="1" parent="1" source="Ha5N9nH4pzYjdirJid1R-2" target="gKCU9rujwe1MHxnmEOaV-26">
          <mxGeometry relative="1" as="geometry" />
        </mxCell>
        <mxCell id="Ha5N9nH4pzYjdirJid1R-2" value="" style="ellipse;whiteSpace=wrap;html=1;aspect=fixed;" vertex="1" parent="1">
          <mxGeometry x="-589" y="73" width="115" height="115" as="geometry" />
        </mxCell>
        <mxCell id="Ha5N9nH4pzYjdirJid1R-3" value="" style="ellipse;whiteSpace=wrap;html=1;aspect=fixed;" vertex="1" parent="1">
          <mxGeometry x="-562" y="90" width="39" height="39" as="geometry" />
        </mxCell>
        <mxCell id="Ha5N9nH4pzYjdirJid1R-4" value="3" style="text;html=1;align=center;verticalAlign=middle;whiteSpace=wrap;rounded=0;fontSize=16;" vertex="1" parent="1">
          <mxGeometry x="-569" y="94.5" width="60" height="30" as="geometry" />
        </mxCell>
        <mxCell id="Ha5N9nH4pzYjdirJid1R-5" value="Ночь в особнеке" style="text;html=1;align=center;verticalAlign=middle;whiteSpace=wrap;rounded=0;fontSize=16;" vertex="1" parent="1">
          <mxGeometry x="-557" y="132" width="51" height="28" as="geometry" />
        </mxCell>
        <mxCell id="Ha5N9nH4pzYjdirJid1R-48" style="edgeStyle=orthogonalEdgeStyle;rounded=0;orthogonalLoop=1;jettySize=auto;html=1;exitX=0.5;exitY=0;exitDx=0;exitDy=0;entryX=0.5;entryY=1;entryDx=0;entryDy=0;" edge="1" parent="1" source="Ha5N9nH4pzYjdirJid1R-6" target="gKCU9rujwe1MHxnmEOaV-34">
          <mxGeometry relative="1" as="geometry" />
        </mxCell>
        <mxCell id="Ha5N9nH4pzYjdirJid1R-6" value="" style="ellipse;whiteSpace=wrap;html=1;aspect=fixed;" vertex="1" parent="1">
          <mxGeometry x="-1174" y="398" width="115" height="115" as="geometry" />
        </mxCell>
        <mxCell id="Ha5N9nH4pzYjdirJid1R-7" value="" style="ellipse;whiteSpace=wrap;html=1;aspect=fixed;" vertex="1" parent="1">
          <mxGeometry x="-1147" y="415" width="39" height="39" as="geometry" />
        </mxCell>
        <mxCell id="Ha5N9nH4pzYjdirJid1R-8" value="4" style="text;html=1;align=center;verticalAlign=middle;whiteSpace=wrap;rounded=0;fontSize=16;" vertex="1" parent="1">
          <mxGeometry x="-1154" y="419.5" width="60" height="30" as="geometry" />
        </mxCell>
        <mxCell id="Ha5N9nH4pzYjdirJid1R-9" value="Страна чедес" style="text;html=1;align=center;verticalAlign=middle;whiteSpace=wrap;rounded=0;fontSize=16;" vertex="1" parent="1">
          <mxGeometry x="-1142" y="457" width="51" height="28" as="geometry" />
        </mxCell>
        <mxCell id="Ha5N9nH4pzYjdirJid1R-57" style="edgeStyle=orthogonalEdgeStyle;rounded=0;orthogonalLoop=1;jettySize=auto;html=1;exitX=0.5;exitY=0;exitDx=0;exitDy=0;entryX=0.5;entryY=1;entryDx=0;entryDy=0;" edge="1" parent="1" source="Ha5N9nH4pzYjdirJid1R-10" target="gKCU9rujwe1MHxnmEOaV-15">
          <mxGeometry relative="1" as="geometry" />
        </mxCell>
        <mxCell id="Ha5N9nH4pzYjdirJid1R-10" value="" style="ellipse;whiteSpace=wrap;html=1;aspect=fixed;" vertex="1" parent="1">
          <mxGeometry x="-649" y="410" width="115" height="115" as="geometry" />
        </mxCell>
        <mxCell id="Ha5N9nH4pzYjdirJid1R-11" value="" style="ellipse;whiteSpace=wrap;html=1;aspect=fixed;" vertex="1" parent="1">
          <mxGeometry x="-622" y="427" width="39" height="39" as="geometry" />
        </mxCell>
        <mxCell id="Ha5N9nH4pzYjdirJid1R-12" value="6" style="text;html=1;align=center;verticalAlign=middle;whiteSpace=wrap;rounded=0;fontSize=16;" vertex="1" parent="1">
          <mxGeometry x="-629" y="431.5" width="60" height="30" as="geometry" />
        </mxCell>
        <mxCell id="Ha5N9nH4pzYjdirJid1R-13" value="Ива" style="text;html=1;align=center;verticalAlign=middle;whiteSpace=wrap;rounded=0;fontSize=16;" vertex="1" parent="1">
          <mxGeometry x="-617" y="469" width="51" height="28" as="geometry" />
        </mxCell>
        <mxCell id="Ha5N9nH4pzYjdirJid1R-50" style="edgeStyle=orthogonalEdgeStyle;rounded=0;orthogonalLoop=1;jettySize=auto;html=1;exitX=1;exitY=0;exitDx=0;exitDy=0;entryX=0.5;entryY=1;entryDx=0;entryDy=0;" edge="1" parent="1" source="Ha5N9nH4pzYjdirJid1R-14" target="gKCU9rujwe1MHxnmEOaV-26">
          <mxGeometry relative="1" as="geometry" />
        </mxCell>
        <mxCell id="Ha5N9nH4pzYjdirJid1R-55" style="edgeStyle=orthogonalEdgeStyle;rounded=0;orthogonalLoop=1;jettySize=auto;html=1;exitX=1;exitY=0;exitDx=0;exitDy=0;entryX=0.5;entryY=1;entryDx=0;entryDy=0;" edge="1" parent="1" source="Ha5N9nH4pzYjdirJid1R-14" target="gKCU9rujwe1MHxnmEOaV-11">
          <mxGeometry relative="1" as="geometry">
            <Array as="points">
              <mxPoint x="-850" y="383" />
              <mxPoint x="-658" y="383" />
            </Array>
          </mxGeometry>
        </mxCell>
        <mxCell id="Ha5N9nH4pzYjdirJid1R-14" value="" style="ellipse;whiteSpace=wrap;html=1;aspect=fixed;" vertex="1" parent="1">
          <mxGeometry x="-948" y="405" width="115" height="115" as="geometry" />
        </mxCell>
        <mxCell id="Ha5N9nH4pzYjdirJid1R-15" value="" style="ellipse;whiteSpace=wrap;html=1;aspect=fixed;" vertex="1" parent="1">
          <mxGeometry x="-921" y="422" width="39" height="39" as="geometry" />
        </mxCell>
        <mxCell id="Ha5N9nH4pzYjdirJid1R-16" value="5" style="text;html=1;align=center;verticalAlign=middle;whiteSpace=wrap;rounded=0;fontSize=16;" vertex="1" parent="1">
          <mxGeometry x="-928" y="426.5" width="60" height="30" as="geometry" />
        </mxCell>
        <mxCell id="Ha5N9nH4pzYjdirJid1R-17" value="Девятихвосты Лис" style="text;html=1;align=center;verticalAlign=middle;whiteSpace=wrap;rounded=0;fontSize=16;" vertex="1" parent="1">
          <mxGeometry x="-916" y="464" width="51" height="28" as="geometry" />
        </mxCell>
        <mxCell id="Ha5N9nH4pzYjdirJid1R-58" style="edgeStyle=orthogonalEdgeStyle;rounded=0;orthogonalLoop=1;jettySize=auto;html=1;exitX=0;exitY=0;exitDx=0;exitDy=0;entryX=0.5;entryY=1;entryDx=0;entryDy=0;" edge="1" parent="1" source="Ha5N9nH4pzYjdirJid1R-18" target="gKCU9rujwe1MHxnmEOaV-15">
          <mxGeometry relative="1" as="geometry" />
        </mxCell>
        <mxCell id="Ha5N9nH4pzYjdirJid1R-18" value="" style="ellipse;whiteSpace=wrap;html=1;aspect=fixed;" vertex="1" parent="1">
          <mxGeometry x="-423" y="410" width="115" height="115" as="geometry" />
        </mxCell>
        <mxCell id="Ha5N9nH4pzYjdirJid1R-19" value="" style="ellipse;whiteSpace=wrap;html=1;aspect=fixed;" vertex="1" parent="1">
          <mxGeometry x="-396" y="427" width="39" height="39" as="geometry" />
        </mxCell>
        <mxCell id="Ha5N9nH4pzYjdirJid1R-20" value="7" style="text;html=1;align=center;verticalAlign=middle;whiteSpace=wrap;rounded=0;fontSize=16;" vertex="1" parent="1">
          <mxGeometry x="-403" y="431.5" width="60" height="30" as="geometry" />
        </mxCell>
        <mxCell id="Ha5N9nH4pzYjdirJid1R-21" value="Разбитая посуда" style="text;html=1;align=center;verticalAlign=middle;whiteSpace=wrap;rounded=0;fontSize=16;" vertex="1" parent="1">
          <mxGeometry x="-391" y="469" width="51" height="28" as="geometry" />
        </mxCell>
        <mxCell id="Ha5N9nH4pzYjdirJid1R-44" style="edgeStyle=orthogonalEdgeStyle;rounded=0;orthogonalLoop=1;jettySize=auto;html=1;exitX=0;exitY=0;exitDx=0;exitDy=0;entryX=0.75;entryY=1;entryDx=0;entryDy=0;" edge="1" parent="1" source="Ha5N9nH4pzYjdirJid1R-22" target="gKCU9rujwe1MHxnmEOaV-42">
          <mxGeometry relative="1" as="geometry" />
        </mxCell>
        <mxCell id="Ha5N9nH4pzYjdirJid1R-22" value="" style="ellipse;whiteSpace=wrap;html=1;aspect=fixed;" vertex="1" parent="1">
          <mxGeometry x="-906" y="80" width="115" height="115" as="geometry" />
        </mxCell>
        <mxCell id="Ha5N9nH4pzYjdirJid1R-23" value="" style="ellipse;whiteSpace=wrap;html=1;aspect=fixed;" vertex="1" parent="1">
          <mxGeometry x="-879" y="97" width="39" height="39" as="geometry" />
        </mxCell>
        <mxCell id="Ha5N9nH4pzYjdirJid1R-24" value="8" style="text;html=1;align=center;verticalAlign=middle;whiteSpace=wrap;rounded=0;fontSize=16;" vertex="1" parent="1">
          <mxGeometry x="-886" y="101.5" width="60" height="30" as="geometry" />
        </mxCell>
        <mxCell id="Ha5N9nH4pzYjdirJid1R-25" value="Всего три капли алкоголя" style="text;html=1;align=center;verticalAlign=middle;whiteSpace=wrap;rounded=0;fontSize=16;" vertex="1" parent="1">
          <mxGeometry x="-874" y="139" width="51" height="28" as="geometry" />
        </mxCell>
        <mxCell id="Ha5N9nH4pzYjdirJid1R-26" value="" style="ellipse;whiteSpace=wrap;html=1;aspect=fixed;" vertex="1" parent="1">
          <mxGeometry x="-264" y="407.5" width="115" height="115" as="geometry" />
        </mxCell>
        <mxCell id="Ha5N9nH4pzYjdirJid1R-27" value="" style="ellipse;whiteSpace=wrap;html=1;aspect=fixed;" vertex="1" parent="1">
          <mxGeometry x="-237" y="424.5" width="39" height="39" as="geometry" />
        </mxCell>
        <mxCell id="Ha5N9nH4pzYjdirJid1R-28" value="9" style="text;html=1;align=center;verticalAlign=middle;whiteSpace=wrap;rounded=0;fontSize=16;" vertex="1" parent="1">
          <mxGeometry x="-244" y="429" width="60" height="30" as="geometry" />
        </mxCell>
        <mxCell id="Ha5N9nH4pzYjdirJid1R-29" value="Вечный страник" style="text;html=1;align=center;verticalAlign=middle;whiteSpace=wrap;rounded=0;fontSize=16;" vertex="1" parent="1">
          <mxGeometry x="-232" y="466.5" width="51" height="28" as="geometry" />
        </mxCell>
        <mxCell id="Ha5N9nH4pzYjdirJid1R-56" style="edgeStyle=orthogonalEdgeStyle;rounded=0;orthogonalLoop=1;jettySize=auto;html=1;exitX=0.5;exitY=0;exitDx=0;exitDy=0;" edge="1" parent="1" source="Ha5N9nH4pzYjdirJid1R-30">
          <mxGeometry relative="1" as="geometry">
            <mxPoint x="-951.8235294117646" y="344.58823529411757" as="targetPoint" />
          </mxGeometry>
        </mxCell>
        <mxCell id="Ha5N9nH4pzYjdirJid1R-30" value="" style="ellipse;whiteSpace=wrap;html=1;aspect=fixed;" vertex="1" parent="1">
          <mxGeometry x="-1076" y="501" width="115" height="115" as="geometry" />
        </mxCell>
        <mxCell id="Ha5N9nH4pzYjdirJid1R-31" value="" style="ellipse;whiteSpace=wrap;html=1;aspect=fixed;" vertex="1" parent="1">
          <mxGeometry x="-1049" y="518" width="39" height="39" as="geometry" />
        </mxCell>
        <mxCell id="Ha5N9nH4pzYjdirJid1R-32" value="10" style="text;html=1;align=center;verticalAlign=middle;whiteSpace=wrap;rounded=0;fontSize=16;" vertex="1" parent="1">
          <mxGeometry x="-1056" y="522.5" width="60" height="30" as="geometry" />
        </mxCell>
        <mxCell id="Ha5N9nH4pzYjdirJid1R-33" value="Кот-Разбойник" style="text;html=1;align=center;verticalAlign=middle;whiteSpace=wrap;rounded=0;fontSize=16;" vertex="1" parent="1">
          <mxGeometry x="-1044" y="560" width="51" height="28" as="geometry" />
        </mxCell>
        <mxCell id="Ha5N9nH4pzYjdirJid1R-39" style="edgeStyle=orthogonalEdgeStyle;rounded=0;orthogonalLoop=1;jettySize=auto;html=1;exitX=0.5;exitY=0;exitDx=0;exitDy=0;entryX=0.601;entryY=1.037;entryDx=0;entryDy=0;entryPerimeter=0;" edge="1" parent="1" source="gKCU9rujwe1MHxnmEOaV-50" target="gKCU9rujwe1MHxnmEOaV-2">
          <mxGeometry relative="1" as="geometry" />
        </mxCell>
        <mxCell id="Ha5N9nH4pzYjdirJid1R-46" style="edgeStyle=orthogonalEdgeStyle;rounded=0;orthogonalLoop=1;jettySize=auto;html=1;exitX=0.5;exitY=0;exitDx=0;exitDy=0;entryX=-0.007;entryY=0.403;entryDx=0;entryDy=0;entryPerimeter=0;" edge="1" parent="1" source="Ha5N9nH4pzYjdirJid1R-22" target="gKCU9rujwe1MHxnmEOaV-2">
          <mxGeometry relative="1" as="geometry" />
        </mxCell>
        <mxCell id="Ha5N9nH4pzYjdirJid1R-49" style="edgeStyle=orthogonalEdgeStyle;rounded=0;orthogonalLoop=1;jettySize=auto;html=1;exitX=0.5;exitY=0;exitDx=0;exitDy=0;entryX=0.57;entryY=1.017;entryDx=0;entryDy=0;entryPerimeter=0;" edge="1" parent="1" source="Ha5N9nH4pzYjdirJid1R-6" target="gKCU9rujwe1MHxnmEOaV-38">
          <mxGeometry relative="1" as="geometry" />
        </mxCell>
      </root>
    </mxGraphModel>
  </diagram>
  <diagram id="nr4tN_Rohdbaq-PkwcWV" name="Страница — 2">
    <mxGraphModel dx="2661" dy="614" grid="1" gridSize="10" guides="1" tooltips="1" connect="1" arrows="1" fold="1" page="1" pageScale="1" pageWidth="827" pageHeight="1169" math="0" shadow="0">
      <root>
        <mxCell id="0" />
        <mxCell id="1" parent="0" />
        <mxCell id="EDvSLOV6fCSsmXpJ6Idx-102" style="edgeStyle=orthogonalEdgeStyle;rounded=0;orthogonalLoop=1;jettySize=auto;html=1;exitX=0.5;exitY=1;exitDx=0;exitDy=0;entryX=0.5;entryY=0;entryDx=0;entryDy=0;" edge="1" parent="1" source="EDvSLOV6fCSsmXpJ6Idx-1" target="EDvSLOV6fCSsmXpJ6Idx-95">
          <mxGeometry relative="1" as="geometry" />
        </mxCell>
        <mxCell id="EDvSLOV6fCSsmXpJ6Idx-1" value="" style="swimlane;startSize=0;" vertex="1" parent="1">
          <mxGeometry x="-590" width="116" height="78" as="geometry" />
        </mxCell>
        <mxCell id="EDvSLOV6fCSsmXpJ6Idx-2" value="Кэти Флам" style="text;html=1;align=center;verticalAlign=middle;whiteSpace=wrap;rounded=0;fontSize=16;" vertex="1" parent="EDvSLOV6fCSsmXpJ6Idx-1">
          <mxGeometry x="19" y="37" width="65" height="30" as="geometry" />
        </mxCell>
        <mxCell id="EDvSLOV6fCSsmXpJ6Idx-3" value="" style="whiteSpace=wrap;html=1;aspect=fixed;" vertex="1" parent="EDvSLOV6fCSsmXpJ6Idx-1">
          <mxGeometry x="37" width="34" height="34" as="geometry" />
        </mxCell>
        <mxCell id="EDvSLOV6fCSsmXpJ6Idx-4" value="5" style="text;html=1;align=center;verticalAlign=middle;whiteSpace=wrap;rounded=0;fontSize=16;" vertex="1" parent="EDvSLOV6fCSsmXpJ6Idx-1">
          <mxGeometry x="21.5" y="2" width="60" height="32" as="geometry" />
        </mxCell>
        <mxCell id="EDvSLOV6fCSsmXpJ6Idx-125" style="edgeStyle=orthogonalEdgeStyle;rounded=0;orthogonalLoop=1;jettySize=auto;html=1;exitX=0.5;exitY=1;exitDx=0;exitDy=0;entryX=0.5;entryY=0;entryDx=0;entryDy=0;" edge="1" parent="1" source="EDvSLOV6fCSsmXpJ6Idx-5" target="EDvSLOV6fCSsmXpJ6Idx-104">
          <mxGeometry relative="1" as="geometry" />
        </mxCell>
        <mxCell id="EDvSLOV6fCSsmXpJ6Idx-5" value="" style="swimlane;startSize=0;" vertex="1" parent="1">
          <mxGeometry x="-1200" y="320" width="116" height="78" as="geometry" />
        </mxCell>
        <mxCell id="EDvSLOV6fCSsmXpJ6Idx-6" value="Акира Натиро" style="text;html=1;align=center;verticalAlign=middle;whiteSpace=wrap;rounded=0;fontSize=16;" vertex="1" parent="EDvSLOV6fCSsmXpJ6Idx-5">
          <mxGeometry x="19" y="37" width="65" height="30" as="geometry" />
        </mxCell>
        <mxCell id="EDvSLOV6fCSsmXpJ6Idx-7" value="" style="whiteSpace=wrap;html=1;aspect=fixed;" vertex="1" parent="EDvSLOV6fCSsmXpJ6Idx-5">
          <mxGeometry x="37" width="34" height="34" as="geometry" />
        </mxCell>
        <mxCell id="EDvSLOV6fCSsmXpJ6Idx-8" value="6" style="text;html=1;align=center;verticalAlign=middle;whiteSpace=wrap;rounded=0;fontSize=16;" vertex="1" parent="EDvSLOV6fCSsmXpJ6Idx-5">
          <mxGeometry x="21.5" y="2" width="60" height="18" as="geometry" />
        </mxCell>
        <mxCell id="EDvSLOV6fCSsmXpJ6Idx-98" style="edgeStyle=orthogonalEdgeStyle;rounded=0;orthogonalLoop=1;jettySize=auto;html=1;exitX=0.5;exitY=1;exitDx=0;exitDy=0;entryX=0.5;entryY=0;entryDx=0;entryDy=0;" edge="1" parent="1" source="EDvSLOV6fCSsmXpJ6Idx-9" target="EDvSLOV6fCSsmXpJ6Idx-70">
          <mxGeometry relative="1" as="geometry" />
        </mxCell>
        <mxCell id="EDvSLOV6fCSsmXpJ6Idx-9" value="" style="swimlane;startSize=0;" vertex="1" parent="1">
          <mxGeometry x="-1200" width="116" height="78" as="geometry" />
        </mxCell>
        <mxCell id="EDvSLOV6fCSsmXpJ6Idx-10" value="Фёдор достоевский" style="text;html=1;align=center;verticalAlign=middle;whiteSpace=wrap;rounded=0;fontSize=16;" vertex="1" parent="EDvSLOV6fCSsmXpJ6Idx-9">
          <mxGeometry x="19" y="37" width="65" height="30" as="geometry" />
        </mxCell>
        <mxCell id="EDvSLOV6fCSsmXpJ6Idx-11" value="" style="whiteSpace=wrap;html=1;aspect=fixed;" vertex="1" parent="EDvSLOV6fCSsmXpJ6Idx-9">
          <mxGeometry x="37" width="34" height="34" as="geometry" />
        </mxCell>
        <mxCell id="EDvSLOV6fCSsmXpJ6Idx-12" value="1" style="text;html=1;align=center;verticalAlign=middle;whiteSpace=wrap;rounded=0;fontSize=16;" vertex="1" parent="EDvSLOV6fCSsmXpJ6Idx-9">
          <mxGeometry x="21.5" y="2" width="60" height="30" as="geometry" />
        </mxCell>
        <mxCell id="EDvSLOV6fCSsmXpJ6Idx-126" style="edgeStyle=orthogonalEdgeStyle;rounded=0;orthogonalLoop=1;jettySize=auto;html=1;exitX=0.5;exitY=1;exitDx=0;exitDy=0;entryX=0.5;entryY=0;entryDx=0;entryDy=0;" edge="1" parent="1" source="EDvSLOV6fCSsmXpJ6Idx-13" target="EDvSLOV6fCSsmXpJ6Idx-108">
          <mxGeometry relative="1" as="geometry" />
        </mxCell>
        <mxCell id="EDvSLOV6fCSsmXpJ6Idx-13" value="" style="swimlane;startSize=0;" vertex="1" parent="1">
          <mxGeometry x="-1050" y="320" width="116" height="78" as="geometry" />
        </mxCell>
        <mxCell id="EDvSLOV6fCSsmXpJ6Idx-14" value="Иван Томкин" style="text;html=1;align=center;verticalAlign=middle;whiteSpace=wrap;rounded=0;fontSize=16;" vertex="1" parent="EDvSLOV6fCSsmXpJ6Idx-13">
          <mxGeometry x="19" y="37" width="65" height="30" as="geometry" />
        </mxCell>
        <mxCell id="EDvSLOV6fCSsmXpJ6Idx-15" value="" style="whiteSpace=wrap;html=1;aspect=fixed;" vertex="1" parent="EDvSLOV6fCSsmXpJ6Idx-13">
          <mxGeometry x="37" width="34" height="34" as="geometry" />
        </mxCell>
        <mxCell id="EDvSLOV6fCSsmXpJ6Idx-16" value="7" style="text;html=1;align=center;verticalAlign=middle;whiteSpace=wrap;rounded=0;fontSize=16;" vertex="1" parent="EDvSLOV6fCSsmXpJ6Idx-13">
          <mxGeometry x="21.5" y="2" width="60" height="30" as="geometry" />
        </mxCell>
        <mxCell id="EDvSLOV6fCSsmXpJ6Idx-127" style="edgeStyle=orthogonalEdgeStyle;rounded=0;orthogonalLoop=1;jettySize=auto;html=1;exitX=0.5;exitY=1;exitDx=0;exitDy=0;entryX=0.5;entryY=0;entryDx=0;entryDy=0;" edge="1" parent="1" source="EDvSLOV6fCSsmXpJ6Idx-17" target="EDvSLOV6fCSsmXpJ6Idx-112">
          <mxGeometry relative="1" as="geometry" />
        </mxCell>
        <mxCell id="EDvSLOV6fCSsmXpJ6Idx-17" value="" style="swimlane;startSize=0;" vertex="1" parent="1">
          <mxGeometry x="-890" y="320" width="116" height="78" as="geometry" />
        </mxCell>
        <mxCell id="EDvSLOV6fCSsmXpJ6Idx-18" value="Жанна Эсли" style="text;html=1;align=center;verticalAlign=middle;whiteSpace=wrap;rounded=0;fontSize=16;" vertex="1" parent="EDvSLOV6fCSsmXpJ6Idx-17">
          <mxGeometry x="19" y="37" width="65" height="30" as="geometry" />
        </mxCell>
        <mxCell id="EDvSLOV6fCSsmXpJ6Idx-19" value="" style="whiteSpace=wrap;html=1;aspect=fixed;" vertex="1" parent="EDvSLOV6fCSsmXpJ6Idx-17">
          <mxGeometry x="37" width="34" height="34" as="geometry" />
        </mxCell>
        <mxCell id="EDvSLOV6fCSsmXpJ6Idx-20" value="8" style="text;html=1;align=center;verticalAlign=middle;whiteSpace=wrap;rounded=0;fontSize=16;" vertex="1" parent="EDvSLOV6fCSsmXpJ6Idx-17">
          <mxGeometry x="21.5" y="2" width="60" height="30" as="geometry" />
        </mxCell>
        <mxCell id="EDvSLOV6fCSsmXpJ6Idx-99" style="edgeStyle=orthogonalEdgeStyle;rounded=0;orthogonalLoop=1;jettySize=auto;html=1;exitX=0.5;exitY=1;exitDx=0;exitDy=0;entryX=0.5;entryY=0;entryDx=0;entryDy=0;" edge="1" parent="1" source="EDvSLOV6fCSsmXpJ6Idx-21" target="EDvSLOV6fCSsmXpJ6Idx-83">
          <mxGeometry relative="1" as="geometry" />
        </mxCell>
        <mxCell id="EDvSLOV6fCSsmXpJ6Idx-21" value="" style="swimlane;startSize=0;" vertex="1" parent="1">
          <mxGeometry x="-1040" width="116" height="78" as="geometry" />
        </mxCell>
        <mxCell id="EDvSLOV6fCSsmXpJ6Idx-22" value="Александр Пушкин" style="text;html=1;align=center;verticalAlign=middle;whiteSpace=wrap;rounded=0;fontSize=16;" vertex="1" parent="EDvSLOV6fCSsmXpJ6Idx-21">
          <mxGeometry x="19" y="37" width="65" height="30" as="geometry" />
        </mxCell>
        <mxCell id="EDvSLOV6fCSsmXpJ6Idx-23" value="" style="whiteSpace=wrap;html=1;aspect=fixed;" vertex="1" parent="EDvSLOV6fCSsmXpJ6Idx-21">
          <mxGeometry x="37" width="34" height="34" as="geometry" />
        </mxCell>
        <mxCell id="EDvSLOV6fCSsmXpJ6Idx-24" value="2" style="text;html=1;align=center;verticalAlign=middle;whiteSpace=wrap;rounded=0;fontSize=16;" vertex="1" parent="EDvSLOV6fCSsmXpJ6Idx-21">
          <mxGeometry x="21.5" y="2" width="60" height="30" as="geometry" />
        </mxCell>
        <mxCell id="EDvSLOV6fCSsmXpJ6Idx-128" style="edgeStyle=orthogonalEdgeStyle;rounded=0;orthogonalLoop=1;jettySize=auto;html=1;exitX=0.5;exitY=1;exitDx=0;exitDy=0;entryX=0.5;entryY=0;entryDx=0;entryDy=0;" edge="1" parent="1" source="EDvSLOV6fCSsmXpJ6Idx-25" target="EDvSLOV6fCSsmXpJ6Idx-116">
          <mxGeometry relative="1" as="geometry" />
        </mxCell>
        <mxCell id="EDvSLOV6fCSsmXpJ6Idx-25" value="" style="swimlane;startSize=0;" vertex="1" parent="1">
          <mxGeometry x="-730" y="320" width="116" height="78" as="geometry" />
        </mxCell>
        <mxCell id="EDvSLOV6fCSsmXpJ6Idx-26" value="Катя Мышкина" style="text;html=1;align=center;verticalAlign=middle;whiteSpace=wrap;rounded=0;fontSize=16;" vertex="1" parent="EDvSLOV6fCSsmXpJ6Idx-25">
          <mxGeometry x="19" y="37" width="65" height="30" as="geometry" />
        </mxCell>
        <mxCell id="EDvSLOV6fCSsmXpJ6Idx-27" value="" style="whiteSpace=wrap;html=1;aspect=fixed;" vertex="1" parent="EDvSLOV6fCSsmXpJ6Idx-25">
          <mxGeometry x="37" width="34" height="34" as="geometry" />
        </mxCell>
        <mxCell id="EDvSLOV6fCSsmXpJ6Idx-28" value="9" style="text;html=1;align=center;verticalAlign=middle;whiteSpace=wrap;rounded=0;fontSize=16;" vertex="1" parent="EDvSLOV6fCSsmXpJ6Idx-25">
          <mxGeometry x="21.5" y="2" width="60" height="30" as="geometry" />
        </mxCell>
        <mxCell id="EDvSLOV6fCSsmXpJ6Idx-129" style="edgeStyle=orthogonalEdgeStyle;rounded=0;orthogonalLoop=1;jettySize=auto;html=1;exitX=0.5;exitY=1;exitDx=0;exitDy=0;entryX=0.5;entryY=0;entryDx=0;entryDy=0;" edge="1" parent="1" source="EDvSLOV6fCSsmXpJ6Idx-29" target="EDvSLOV6fCSsmXpJ6Idx-120">
          <mxGeometry relative="1" as="geometry" />
        </mxCell>
        <mxCell id="EDvSLOV6fCSsmXpJ6Idx-29" value="" style="swimlane;startSize=0;" vertex="1" parent="1">
          <mxGeometry x="-589" y="321" width="116" height="78" as="geometry" />
        </mxCell>
        <mxCell id="EDvSLOV6fCSsmXpJ6Idx-30" value="Жук Олень" style="text;html=1;align=center;verticalAlign=middle;whiteSpace=wrap;rounded=0;fontSize=16;" vertex="1" parent="EDvSLOV6fCSsmXpJ6Idx-29">
          <mxGeometry x="19" y="40" width="65" height="27" as="geometry" />
        </mxCell>
        <mxCell id="EDvSLOV6fCSsmXpJ6Idx-31" value="" style="whiteSpace=wrap;html=1;aspect=fixed;" vertex="1" parent="EDvSLOV6fCSsmXpJ6Idx-29">
          <mxGeometry x="37" width="34" height="34" as="geometry" />
        </mxCell>
        <mxCell id="EDvSLOV6fCSsmXpJ6Idx-32" value="10" style="text;html=1;align=center;verticalAlign=middle;whiteSpace=wrap;rounded=0;fontSize=16;" vertex="1" parent="EDvSLOV6fCSsmXpJ6Idx-29">
          <mxGeometry x="21.5" y="2" width="60" height="30" as="geometry" />
        </mxCell>
        <mxCell id="EDvSLOV6fCSsmXpJ6Idx-101" style="edgeStyle=orthogonalEdgeStyle;rounded=0;orthogonalLoop=1;jettySize=auto;html=1;exitX=0.5;exitY=1;exitDx=0;exitDy=0;entryX=0.5;entryY=0;entryDx=0;entryDy=0;" edge="1" parent="1" source="EDvSLOV6fCSsmXpJ6Idx-33" target="EDvSLOV6fCSsmXpJ6Idx-91">
          <mxGeometry relative="1" as="geometry" />
        </mxCell>
        <mxCell id="EDvSLOV6fCSsmXpJ6Idx-33" value="" style="swimlane;startSize=0;" vertex="1" parent="1">
          <mxGeometry x="-740" width="116" height="78" as="geometry" />
        </mxCell>
        <mxCell id="EDvSLOV6fCSsmXpJ6Idx-34" value="Пелагея Антропова" style="text;html=1;align=center;verticalAlign=middle;whiteSpace=wrap;rounded=0;fontSize=16;" vertex="1" parent="EDvSLOV6fCSsmXpJ6Idx-33">
          <mxGeometry x="19" y="37" width="65" height="30" as="geometry" />
        </mxCell>
        <mxCell id="EDvSLOV6fCSsmXpJ6Idx-35" value="" style="whiteSpace=wrap;html=1;aspect=fixed;" vertex="1" parent="EDvSLOV6fCSsmXpJ6Idx-33">
          <mxGeometry x="37" width="34" height="34" as="geometry" />
        </mxCell>
        <mxCell id="EDvSLOV6fCSsmXpJ6Idx-36" value="4" style="text;html=1;align=center;verticalAlign=middle;whiteSpace=wrap;rounded=0;fontSize=16;" vertex="1" parent="EDvSLOV6fCSsmXpJ6Idx-33">
          <mxGeometry x="21.5" y="2" width="60" height="30" as="geometry" />
        </mxCell>
        <mxCell id="EDvSLOV6fCSsmXpJ6Idx-100" style="edgeStyle=orthogonalEdgeStyle;rounded=0;orthogonalLoop=1;jettySize=auto;html=1;exitX=0.5;exitY=1;exitDx=0;exitDy=0;entryX=0.5;entryY=0;entryDx=0;entryDy=0;" edge="1" parent="1" source="EDvSLOV6fCSsmXpJ6Idx-38" target="EDvSLOV6fCSsmXpJ6Idx-87">
          <mxGeometry relative="1" as="geometry" />
        </mxCell>
        <mxCell id="EDvSLOV6fCSsmXpJ6Idx-38" value="" style="swimlane;startSize=0;" vertex="1" parent="1">
          <mxGeometry x="-890" width="116" height="78" as="geometry" />
        </mxCell>
        <mxCell id="EDvSLOV6fCSsmXpJ6Idx-39" value="Анна Рэйн" style="text;html=1;align=center;verticalAlign=middle;whiteSpace=wrap;rounded=0;fontSize=16;" vertex="1" parent="1">
          <mxGeometry x="-867" y="46" width="65" height="26" as="geometry" />
        </mxCell>
        <mxCell id="EDvSLOV6fCSsmXpJ6Idx-40" value="" style="whiteSpace=wrap;html=1;aspect=fixed;" vertex="1" parent="1">
          <mxGeometry x="-849" y="5" width="34" height="34" as="geometry" />
        </mxCell>
        <mxCell id="EDvSLOV6fCSsmXpJ6Idx-41" value="3" style="text;html=1;align=center;verticalAlign=middle;whiteSpace=wrap;rounded=0;fontSize=16;" vertex="1" parent="1">
          <mxGeometry x="-864.5" y="7" width="60" height="30" as="geometry" />
        </mxCell>
        <mxCell id="EDvSLOV6fCSsmXpJ6Idx-69" value="" style="rhombus;whiteSpace=wrap;html=1;" vertex="1" parent="1">
          <mxGeometry x="-1207" y="130" width="130" height="130" as="geometry" />
        </mxCell>
        <mxCell id="EDvSLOV6fCSsmXpJ6Idx-70" value="" style="rhombus;whiteSpace=wrap;html=1;" vertex="1" parent="1">
          <mxGeometry x="-1167" y="130" width="50" height="50" as="geometry" />
        </mxCell>
        <mxCell id="EDvSLOV6fCSsmXpJ6Idx-80" value="1" style="text;html=1;align=center;verticalAlign=middle;whiteSpace=wrap;rounded=0;fontSize=16;" vertex="1" parent="1">
          <mxGeometry x="-1172" y="140" width="60" height="30" as="geometry" />
        </mxCell>
        <mxCell id="EDvSLOV6fCSsmXpJ6Idx-81" value="Книга" style="text;html=1;align=center;verticalAlign=middle;whiteSpace=wrap;rounded=0;fontSize=16;" vertex="1" parent="1">
          <mxGeometry x="-1172" y="190" width="65" height="30" as="geometry" />
        </mxCell>
        <mxCell id="EDvSLOV6fCSsmXpJ6Idx-82" value="" style="rhombus;whiteSpace=wrap;html=1;" vertex="1" parent="1">
          <mxGeometry x="-1040" y="130" width="130" height="130" as="geometry" />
        </mxCell>
        <mxCell id="EDvSLOV6fCSsmXpJ6Idx-83" value="" style="rhombus;whiteSpace=wrap;html=1;" vertex="1" parent="1">
          <mxGeometry x="-1000" y="130" width="50" height="50" as="geometry" />
        </mxCell>
        <mxCell id="EDvSLOV6fCSsmXpJ6Idx-84" value="2" style="text;html=1;align=center;verticalAlign=middle;whiteSpace=wrap;rounded=0;fontSize=16;" vertex="1" parent="1">
          <mxGeometry x="-1005" y="140" width="60" height="30" as="geometry" />
        </mxCell>
        <mxCell id="EDvSLOV6fCSsmXpJ6Idx-85" value="Перо" style="text;html=1;align=center;verticalAlign=middle;whiteSpace=wrap;rounded=0;fontSize=16;" vertex="1" parent="1">
          <mxGeometry x="-1005" y="190" width="65" height="30" as="geometry" />
        </mxCell>
        <mxCell id="EDvSLOV6fCSsmXpJ6Idx-86" value="" style="rhombus;whiteSpace=wrap;html=1;" vertex="1" parent="1">
          <mxGeometry x="-897" y="130" width="130" height="130" as="geometry" />
        </mxCell>
        <mxCell id="EDvSLOV6fCSsmXpJ6Idx-87" value="" style="rhombus;whiteSpace=wrap;html=1;" vertex="1" parent="1">
          <mxGeometry x="-857" y="130" width="50" height="50" as="geometry" />
        </mxCell>
        <mxCell id="EDvSLOV6fCSsmXpJ6Idx-88" value="3" style="text;html=1;align=center;verticalAlign=middle;whiteSpace=wrap;rounded=0;fontSize=16;" vertex="1" parent="1">
          <mxGeometry x="-862" y="140" width="60" height="30" as="geometry" />
        </mxCell>
        <mxCell id="EDvSLOV6fCSsmXpJ6Idx-89" value="Инная земля" style="text;html=1;align=center;verticalAlign=middle;whiteSpace=wrap;rounded=0;fontSize=16;" vertex="1" parent="1">
          <mxGeometry x="-862" y="190" width="65" height="30" as="geometry" />
        </mxCell>
        <mxCell id="EDvSLOV6fCSsmXpJ6Idx-90" value="" style="rhombus;whiteSpace=wrap;html=1;" vertex="1" parent="1">
          <mxGeometry x="-747" y="130" width="130" height="130" as="geometry" />
        </mxCell>
        <mxCell id="EDvSLOV6fCSsmXpJ6Idx-91" value="" style="rhombus;whiteSpace=wrap;html=1;" vertex="1" parent="1">
          <mxGeometry x="-707" y="130" width="50" height="50" as="geometry" />
        </mxCell>
        <mxCell id="EDvSLOV6fCSsmXpJ6Idx-92" value="4" style="text;html=1;align=center;verticalAlign=middle;whiteSpace=wrap;rounded=0;fontSize=16;" vertex="1" parent="1">
          <mxGeometry x="-712" y="140" width="60" height="30" as="geometry" />
        </mxCell>
        <mxCell id="EDvSLOV6fCSsmXpJ6Idx-93" value="Киравник" style="text;html=1;align=center;verticalAlign=middle;whiteSpace=wrap;rounded=0;fontSize=16;" vertex="1" parent="1">
          <mxGeometry x="-712" y="190" width="65" height="30" as="geometry" />
        </mxCell>
        <mxCell id="EDvSLOV6fCSsmXpJ6Idx-94" value="" style="rhombus;whiteSpace=wrap;html=1;" vertex="1" parent="1">
          <mxGeometry x="-580" y="130" width="130" height="130" as="geometry" />
        </mxCell>
        <mxCell id="EDvSLOV6fCSsmXpJ6Idx-95" value="" style="rhombus;whiteSpace=wrap;html=1;" vertex="1" parent="1">
          <mxGeometry x="-540" y="130" width="50" height="50" as="geometry" />
        </mxCell>
        <mxCell id="EDvSLOV6fCSsmXpJ6Idx-96" value="5" style="text;html=1;align=center;verticalAlign=middle;whiteSpace=wrap;rounded=0;fontSize=16;" vertex="1" parent="1">
          <mxGeometry x="-545" y="140" width="60" height="30" as="geometry" />
        </mxCell>
        <mxCell id="EDvSLOV6fCSsmXpJ6Idx-97" value="Писарь" style="text;html=1;align=center;verticalAlign=middle;whiteSpace=wrap;rounded=0;fontSize=16;" vertex="1" parent="1">
          <mxGeometry x="-545" y="190" width="65" height="30" as="geometry" />
        </mxCell>
        <mxCell id="EDvSLOV6fCSsmXpJ6Idx-103" value="" style="rhombus;whiteSpace=wrap;html=1;" vertex="1" parent="1">
          <mxGeometry x="-1207" y="450" width="130" height="130" as="geometry" />
        </mxCell>
        <mxCell id="EDvSLOV6fCSsmXpJ6Idx-104" value="" style="rhombus;whiteSpace=wrap;html=1;" vertex="1" parent="1">
          <mxGeometry x="-1167" y="450" width="50" height="50" as="geometry" />
        </mxCell>
        <mxCell id="EDvSLOV6fCSsmXpJ6Idx-105" value="6" style="text;html=1;align=center;verticalAlign=middle;whiteSpace=wrap;rounded=0;fontSize=16;" vertex="1" parent="1">
          <mxGeometry x="-1172" y="460" width="60" height="30" as="geometry" />
        </mxCell>
        <mxCell id="EDvSLOV6fCSsmXpJ6Idx-106" value="Летопись" style="text;html=1;align=center;verticalAlign=middle;whiteSpace=wrap;rounded=0;fontSize=16;" vertex="1" parent="1">
          <mxGeometry x="-1172" y="510" width="65" height="30" as="geometry" />
        </mxCell>
        <mxCell id="EDvSLOV6fCSsmXpJ6Idx-107" value="" style="rhombus;whiteSpace=wrap;html=1;" vertex="1" parent="1">
          <mxGeometry x="-1040" y="450" width="130" height="130" as="geometry" />
        </mxCell>
        <mxCell id="EDvSLOV6fCSsmXpJ6Idx-108" value="" style="rhombus;whiteSpace=wrap;html=1;" vertex="1" parent="1">
          <mxGeometry x="-1000" y="450" width="50" height="50" as="geometry" />
        </mxCell>
        <mxCell id="EDvSLOV6fCSsmXpJ6Idx-109" value="7" style="text;html=1;align=center;verticalAlign=middle;whiteSpace=wrap;rounded=0;fontSize=16;" vertex="1" parent="1">
          <mxGeometry x="-1005" y="460" width="60" height="30" as="geometry" />
        </mxCell>
        <mxCell id="EDvSLOV6fCSsmXpJ6Idx-110" value="Яблоко" style="text;html=1;align=center;verticalAlign=middle;whiteSpace=wrap;rounded=0;fontSize=16;" vertex="1" parent="1">
          <mxGeometry x="-1005" y="510" width="65" height="30" as="geometry" />
        </mxCell>
        <mxCell id="EDvSLOV6fCSsmXpJ6Idx-111" value="" style="rhombus;whiteSpace=wrap;html=1;" vertex="1" parent="1">
          <mxGeometry x="-897" y="450" width="130" height="130" as="geometry" />
        </mxCell>
        <mxCell id="EDvSLOV6fCSsmXpJ6Idx-112" value="" style="rhombus;whiteSpace=wrap;html=1;" vertex="1" parent="1">
          <mxGeometry x="-857" y="450" width="50" height="50" as="geometry" />
        </mxCell>
        <mxCell id="EDvSLOV6fCSsmXpJ6Idx-113" value="8" style="text;html=1;align=center;verticalAlign=middle;whiteSpace=wrap;rounded=0;fontSize=16;" vertex="1" parent="1">
          <mxGeometry x="-862" y="460" width="60" height="30" as="geometry" />
        </mxCell>
        <mxCell id="EDvSLOV6fCSsmXpJ6Idx-114" value="Древо" style="text;html=1;align=center;verticalAlign=middle;whiteSpace=wrap;rounded=0;fontSize=16;" vertex="1" parent="1">
          <mxGeometry x="-862" y="510" width="65" height="30" as="geometry" />
        </mxCell>
        <mxCell id="EDvSLOV6fCSsmXpJ6Idx-115" value="" style="rhombus;whiteSpace=wrap;html=1;" vertex="1" parent="1">
          <mxGeometry x="-747" y="450" width="130" height="130" as="geometry" />
        </mxCell>
        <mxCell id="EDvSLOV6fCSsmXpJ6Idx-116" value="" style="rhombus;whiteSpace=wrap;html=1;" vertex="1" parent="1">
          <mxGeometry x="-707" y="450" width="50" height="50" as="geometry" />
        </mxCell>
        <mxCell id="EDvSLOV6fCSsmXpJ6Idx-117" value="9" style="text;html=1;align=center;verticalAlign=middle;whiteSpace=wrap;rounded=0;fontSize=16;" vertex="1" parent="1">
          <mxGeometry x="-712" y="460" width="60" height="30" as="geometry" />
        </mxCell>
        <mxCell id="EDvSLOV6fCSsmXpJ6Idx-118" value="Пиксав" style="text;html=1;align=center;verticalAlign=middle;whiteSpace=wrap;rounded=0;fontSize=16;" vertex="1" parent="1">
          <mxGeometry x="-712" y="510" width="65" height="30" as="geometry" />
        </mxCell>
        <mxCell id="EDvSLOV6fCSsmXpJ6Idx-119" value="" style="rhombus;whiteSpace=wrap;html=1;" vertex="1" parent="1">
          <mxGeometry x="-580" y="450" width="130" height="130" as="geometry" />
        </mxCell>
        <mxCell id="EDvSLOV6fCSsmXpJ6Idx-120" value="" style="rhombus;whiteSpace=wrap;html=1;" vertex="1" parent="1">
          <mxGeometry x="-540" y="450" width="50" height="50" as="geometry" />
        </mxCell>
        <mxCell id="EDvSLOV6fCSsmXpJ6Idx-121" value="10" style="text;html=1;align=center;verticalAlign=middle;whiteSpace=wrap;rounded=0;fontSize=16;" vertex="1" parent="1">
          <mxGeometry x="-545" y="460" width="60" height="30" as="geometry" />
        </mxCell>
        <mxCell id="EDvSLOV6fCSsmXpJ6Idx-122" value="Писарь" style="text;html=1;align=center;verticalAlign=middle;whiteSpace=wrap;rounded=0;fontSize=16;" vertex="1" parent="1">
          <mxGeometry x="-545" y="510" width="65" height="30" as="geometry" />
        </mxCell>
      </root>
    </mxGraphModel>
  </diagram>
  <diagram id="IH9BbkWZR8CPlGVyDjOc" name="Страница — 3">
    <mxGraphModel dx="2829" dy="717" grid="1" gridSize="10" guides="1" tooltips="1" connect="1" arrows="1" fold="1" page="1" pageScale="1" pageWidth="827" pageHeight="1169" math="0" shadow="0">
      <root>
        <mxCell id="0" />
        <mxCell id="1" parent="0" />
        <mxCell id="RejtXPwbg4MbM7y9jDIU-26" value="" style="rhombus;whiteSpace=wrap;html=1;" vertex="1" parent="1">
          <mxGeometry x="-1190" y="270" width="130" height="130" as="geometry" />
        </mxCell>
        <mxCell id="RejtXPwbg4MbM7y9jDIU-27" value="" style="rhombus;whiteSpace=wrap;html=1;" vertex="1" parent="1">
          <mxGeometry x="-1150" y="270" width="50" height="50" as="geometry" />
        </mxCell>
        <mxCell id="RejtXPwbg4MbM7y9jDIU-28" value="1" style="text;html=1;align=center;verticalAlign=middle;whiteSpace=wrap;rounded=0;fontSize=16;" vertex="1" parent="1">
          <mxGeometry x="-1155" y="280" width="60" height="30" as="geometry" />
        </mxCell>
        <mxCell id="RejtXPwbg4MbM7y9jDIU-29" value="Книга" style="text;html=1;align=center;verticalAlign=middle;whiteSpace=wrap;rounded=0;fontSize=16;" vertex="1" parent="1">
          <mxGeometry x="-1155" y="330" width="65" height="30" as="geometry" />
        </mxCell>
        <mxCell id="RejtXPwbg4MbM7y9jDIU-30" value="" style="rhombus;whiteSpace=wrap;html=1;" vertex="1" parent="1">
          <mxGeometry x="-1023" y="270" width="130" height="130" as="geometry" />
        </mxCell>
        <mxCell id="RejtXPwbg4MbM7y9jDIU-31" value="" style="rhombus;whiteSpace=wrap;html=1;" vertex="1" parent="1">
          <mxGeometry x="-983" y="270" width="50" height="50" as="geometry" />
        </mxCell>
        <mxCell id="RejtXPwbg4MbM7y9jDIU-32" value="2" style="text;html=1;align=center;verticalAlign=middle;whiteSpace=wrap;rounded=0;fontSize=16;" vertex="1" parent="1">
          <mxGeometry x="-988" y="280" width="60" height="30" as="geometry" />
        </mxCell>
        <mxCell id="RejtXPwbg4MbM7y9jDIU-33" value="Перо" style="text;html=1;align=center;verticalAlign=middle;whiteSpace=wrap;rounded=0;fontSize=16;" vertex="1" parent="1">
          <mxGeometry x="-988" y="330" width="65" height="30" as="geometry" />
        </mxCell>
        <mxCell id="RejtXPwbg4MbM7y9jDIU-34" value="" style="rhombus;whiteSpace=wrap;html=1;" vertex="1" parent="1">
          <mxGeometry x="-880" y="270" width="130" height="130" as="geometry" />
        </mxCell>
        <mxCell id="RejtXPwbg4MbM7y9jDIU-35" value="" style="rhombus;whiteSpace=wrap;html=1;" vertex="1" parent="1">
          <mxGeometry x="-840" y="270" width="50" height="50" as="geometry" />
        </mxCell>
        <mxCell id="RejtXPwbg4MbM7y9jDIU-36" value="3" style="text;html=1;align=center;verticalAlign=middle;whiteSpace=wrap;rounded=0;fontSize=16;" vertex="1" parent="1">
          <mxGeometry x="-845" y="280" width="60" height="30" as="geometry" />
        </mxCell>
        <mxCell id="RejtXPwbg4MbM7y9jDIU-37" value="Инная земля" style="text;html=1;align=center;verticalAlign=middle;whiteSpace=wrap;rounded=0;fontSize=16;" vertex="1" parent="1">
          <mxGeometry x="-845" y="330" width="65" height="30" as="geometry" />
        </mxCell>
        <mxCell id="RejtXPwbg4MbM7y9jDIU-38" value="" style="rhombus;whiteSpace=wrap;html=1;" vertex="1" parent="1">
          <mxGeometry x="-730" y="270" width="130" height="130" as="geometry" />
        </mxCell>
        <mxCell id="RejtXPwbg4MbM7y9jDIU-39" value="" style="rhombus;whiteSpace=wrap;html=1;" vertex="1" parent="1">
          <mxGeometry x="-690" y="270" width="50" height="50" as="geometry" />
        </mxCell>
        <mxCell id="RejtXPwbg4MbM7y9jDIU-40" value="4" style="text;html=1;align=center;verticalAlign=middle;whiteSpace=wrap;rounded=0;fontSize=16;" vertex="1" parent="1">
          <mxGeometry x="-695" y="280" width="60" height="30" as="geometry" />
        </mxCell>
        <mxCell id="RejtXPwbg4MbM7y9jDIU-41" value="Киравник" style="text;html=1;align=center;verticalAlign=middle;whiteSpace=wrap;rounded=0;fontSize=16;" vertex="1" parent="1">
          <mxGeometry x="-695" y="330" width="65" height="30" as="geometry" />
        </mxCell>
        <mxCell id="RejtXPwbg4MbM7y9jDIU-42" value="" style="rhombus;whiteSpace=wrap;html=1;" vertex="1" parent="1">
          <mxGeometry x="-563" y="270" width="130" height="130" as="geometry" />
        </mxCell>
        <mxCell id="RejtXPwbg4MbM7y9jDIU-43" value="" style="rhombus;whiteSpace=wrap;html=1;" vertex="1" parent="1">
          <mxGeometry x="-523" y="270" width="50" height="50" as="geometry" />
        </mxCell>
        <mxCell id="RejtXPwbg4MbM7y9jDIU-44" value="5" style="text;html=1;align=center;verticalAlign=middle;whiteSpace=wrap;rounded=0;fontSize=16;" vertex="1" parent="1">
          <mxGeometry x="-528" y="280" width="60" height="30" as="geometry" />
        </mxCell>
        <mxCell id="RejtXPwbg4MbM7y9jDIU-45" value="Писарь" style="text;html=1;align=center;verticalAlign=middle;whiteSpace=wrap;rounded=0;fontSize=16;" vertex="1" parent="1">
          <mxGeometry x="-528" y="330" width="65" height="30" as="geometry" />
        </mxCell>
        <mxCell id="RejtXPwbg4MbM7y9jDIU-46" value="" style="rhombus;whiteSpace=wrap;html=1;" vertex="1" parent="1">
          <mxGeometry x="-1190" y="590" width="130" height="130" as="geometry" />
        </mxCell>
        <mxCell id="RejtXPwbg4MbM7y9jDIU-47" value="" style="rhombus;whiteSpace=wrap;html=1;" vertex="1" parent="1">
          <mxGeometry x="-1150" y="590" width="50" height="50" as="geometry" />
        </mxCell>
        <mxCell id="RejtXPwbg4MbM7y9jDIU-48" value="6" style="text;html=1;align=center;verticalAlign=middle;whiteSpace=wrap;rounded=0;fontSize=16;" vertex="1" parent="1">
          <mxGeometry x="-1155" y="600" width="60" height="30" as="geometry" />
        </mxCell>
        <mxCell id="RejtXPwbg4MbM7y9jDIU-49" value="Летопись" style="text;html=1;align=center;verticalAlign=middle;whiteSpace=wrap;rounded=0;fontSize=16;" vertex="1" parent="1">
          <mxGeometry x="-1155" y="650" width="65" height="30" as="geometry" />
        </mxCell>
        <mxCell id="RejtXPwbg4MbM7y9jDIU-50" value="" style="rhombus;whiteSpace=wrap;html=1;" vertex="1" parent="1">
          <mxGeometry x="-1023" y="590" width="130" height="130" as="geometry" />
        </mxCell>
        <mxCell id="RejtXPwbg4MbM7y9jDIU-51" value="" style="rhombus;whiteSpace=wrap;html=1;" vertex="1" parent="1">
          <mxGeometry x="-983" y="590" width="50" height="50" as="geometry" />
        </mxCell>
        <mxCell id="RejtXPwbg4MbM7y9jDIU-52" value="7" style="text;html=1;align=center;verticalAlign=middle;whiteSpace=wrap;rounded=0;fontSize=16;" vertex="1" parent="1">
          <mxGeometry x="-988" y="600" width="60" height="30" as="geometry" />
        </mxCell>
        <mxCell id="RejtXPwbg4MbM7y9jDIU-53" value="Яблоко" style="text;html=1;align=center;verticalAlign=middle;whiteSpace=wrap;rounded=0;fontSize=16;" vertex="1" parent="1">
          <mxGeometry x="-988" y="650" width="65" height="30" as="geometry" />
        </mxCell>
        <mxCell id="RejtXPwbg4MbM7y9jDIU-54" value="" style="rhombus;whiteSpace=wrap;html=1;" vertex="1" parent="1">
          <mxGeometry x="-880" y="590" width="130" height="130" as="geometry" />
        </mxCell>
        <mxCell id="RejtXPwbg4MbM7y9jDIU-55" value="" style="rhombus;whiteSpace=wrap;html=1;" vertex="1" parent="1">
          <mxGeometry x="-840" y="590" width="50" height="50" as="geometry" />
        </mxCell>
        <mxCell id="RejtXPwbg4MbM7y9jDIU-56" value="8" style="text;html=1;align=center;verticalAlign=middle;whiteSpace=wrap;rounded=0;fontSize=16;" vertex="1" parent="1">
          <mxGeometry x="-845" y="600" width="60" height="30" as="geometry" />
        </mxCell>
        <mxCell id="RejtXPwbg4MbM7y9jDIU-57" value="Древо" style="text;html=1;align=center;verticalAlign=middle;whiteSpace=wrap;rounded=0;fontSize=16;" vertex="1" parent="1">
          <mxGeometry x="-845" y="650" width="65" height="30" as="geometry" />
        </mxCell>
        <mxCell id="RejtXPwbg4MbM7y9jDIU-58" value="" style="rhombus;whiteSpace=wrap;html=1;" vertex="1" parent="1">
          <mxGeometry x="-730" y="590" width="130" height="130" as="geometry" />
        </mxCell>
        <mxCell id="RejtXPwbg4MbM7y9jDIU-59" value="" style="rhombus;whiteSpace=wrap;html=1;" vertex="1" parent="1">
          <mxGeometry x="-690" y="590" width="50" height="50" as="geometry" />
        </mxCell>
        <mxCell id="RejtXPwbg4MbM7y9jDIU-60" value="9" style="text;html=1;align=center;verticalAlign=middle;whiteSpace=wrap;rounded=0;fontSize=16;" vertex="1" parent="1">
          <mxGeometry x="-695" y="600" width="60" height="30" as="geometry" />
        </mxCell>
        <mxCell id="RejtXPwbg4MbM7y9jDIU-61" value="Пиксав" style="text;html=1;align=center;verticalAlign=middle;whiteSpace=wrap;rounded=0;fontSize=16;" vertex="1" parent="1">
          <mxGeometry x="-695" y="650" width="65" height="30" as="geometry" />
        </mxCell>
        <mxCell id="RejtXPwbg4MbM7y9jDIU-62" value="" style="rhombus;whiteSpace=wrap;html=1;" vertex="1" parent="1">
          <mxGeometry x="-563" y="590" width="130" height="130" as="geometry" />
        </mxCell>
        <mxCell id="RejtXPwbg4MbM7y9jDIU-63" value="" style="rhombus;whiteSpace=wrap;html=1;" vertex="1" parent="1">
          <mxGeometry x="-523" y="590" width="50" height="50" as="geometry" />
        </mxCell>
        <mxCell id="RejtXPwbg4MbM7y9jDIU-64" value="10" style="text;html=1;align=center;verticalAlign=middle;whiteSpace=wrap;rounded=0;fontSize=16;" vertex="1" parent="1">
          <mxGeometry x="-528" y="600" width="60" height="30" as="geometry" />
        </mxCell>
        <mxCell id="RejtXPwbg4MbM7y9jDIU-65" value="Писарь" style="text;html=1;align=center;verticalAlign=middle;whiteSpace=wrap;rounded=0;fontSize=16;" vertex="1" parent="1">
          <mxGeometry x="-528" y="650" width="65" height="30" as="geometry" />
        </mxCell>
        <mxCell id="1fAF-ycOyaN2y75xV17Y-26" style="edgeStyle=orthogonalEdgeStyle;rounded=0;orthogonalLoop=1;jettySize=auto;html=1;exitX=0.5;exitY=1;exitDx=0;exitDy=0;entryX=0.5;entryY=0;entryDx=0;entryDy=0;" edge="1" parent="1" source="w8OWX7eUCELfLcuGYtOb-1" target="RejtXPwbg4MbM7y9jDIU-31">
          <mxGeometry relative="1" as="geometry" />
        </mxCell>
        <mxCell id="w8OWX7eUCELfLcuGYtOb-1" value="" style="ellipse;whiteSpace=wrap;html=1;aspect=fixed;" vertex="1" parent="1">
          <mxGeometry x="-1023" y="80" width="115" height="115" as="geometry" />
        </mxCell>
        <mxCell id="w8OWX7eUCELfLcuGYtOb-2" value="" style="ellipse;whiteSpace=wrap;html=1;aspect=fixed;" vertex="1" parent="1">
          <mxGeometry x="-999.5" y="88.5" width="39" height="39" as="geometry" />
        </mxCell>
        <mxCell id="w8OWX7eUCELfLcuGYtOb-3" value="2" style="text;html=1;align=center;verticalAlign=middle;whiteSpace=wrap;rounded=0;fontSize=16;" vertex="1" parent="1">
          <mxGeometry x="-1006.5" y="93" width="60" height="30" as="geometry" />
        </mxCell>
        <mxCell id="w8OWX7eUCELfLcuGYtOb-4" value="Барышня Крестьянка" style="text;html=1;align=center;verticalAlign=middle;whiteSpace=wrap;rounded=0;fontSize=16;" vertex="1" parent="1">
          <mxGeometry x="-994.5" y="130.5" width="51" height="28" as="geometry" />
        </mxCell>
        <mxCell id="1fAF-ycOyaN2y75xV17Y-25" style="edgeStyle=orthogonalEdgeStyle;rounded=0;orthogonalLoop=1;jettySize=auto;html=1;exitX=0.5;exitY=1;exitDx=0;exitDy=0;entryX=0.5;entryY=0;entryDx=0;entryDy=0;" edge="1" parent="1" source="w8OWX7eUCELfLcuGYtOb-5" target="RejtXPwbg4MbM7y9jDIU-27">
          <mxGeometry relative="1" as="geometry" />
        </mxCell>
        <mxCell id="w8OWX7eUCELfLcuGYtOb-5" value="" style="ellipse;whiteSpace=wrap;html=1;aspect=fixed;" vertex="1" parent="1">
          <mxGeometry x="-1185" y="80" width="115" height="115" as="geometry" />
        </mxCell>
        <mxCell id="w8OWX7eUCELfLcuGYtOb-6" value="" style="ellipse;whiteSpace=wrap;html=1;aspect=fixed;" vertex="1" parent="1">
          <mxGeometry x="-1158" y="97" width="39" height="39" as="geometry" />
        </mxCell>
        <mxCell id="w8OWX7eUCELfLcuGYtOb-7" value="1" style="text;html=1;align=center;verticalAlign=middle;whiteSpace=wrap;rounded=0;fontSize=16;" vertex="1" parent="1">
          <mxGeometry x="-1165" y="101.5" width="60" height="30" as="geometry" />
        </mxCell>
        <mxCell id="w8OWX7eUCELfLcuGYtOb-8" value="Преступление и Наказание" style="text;html=1;align=center;verticalAlign=middle;whiteSpace=wrap;rounded=0;fontSize=16;" vertex="1" parent="1">
          <mxGeometry x="-1153" y="139" width="51" height="28" as="geometry" />
        </mxCell>
        <mxCell id="1fAF-ycOyaN2y75xV17Y-27" style="edgeStyle=orthogonalEdgeStyle;rounded=0;orthogonalLoop=1;jettySize=auto;html=1;exitX=0.5;exitY=1;exitDx=0;exitDy=0;entryX=0.5;entryY=0;entryDx=0;entryDy=0;" edge="1" parent="1" source="w8OWX7eUCELfLcuGYtOb-9" target="RejtXPwbg4MbM7y9jDIU-35">
          <mxGeometry relative="1" as="geometry" />
        </mxCell>
        <mxCell id="w8OWX7eUCELfLcuGYtOb-9" value="" style="ellipse;whiteSpace=wrap;html=1;aspect=fixed;" vertex="1" parent="1">
          <mxGeometry x="-872.5" y="80" width="115" height="115" as="geometry" />
        </mxCell>
        <mxCell id="w8OWX7eUCELfLcuGYtOb-10" value="" style="ellipse;whiteSpace=wrap;html=1;aspect=fixed;" vertex="1" parent="1">
          <mxGeometry x="-845.5" y="97" width="39" height="39" as="geometry" />
        </mxCell>
        <mxCell id="w8OWX7eUCELfLcuGYtOb-11" value="3" style="text;html=1;align=center;verticalAlign=middle;whiteSpace=wrap;rounded=0;fontSize=16;" vertex="1" parent="1">
          <mxGeometry x="-852.5" y="101.5" width="60" height="30" as="geometry" />
        </mxCell>
        <mxCell id="w8OWX7eUCELfLcuGYtOb-12" value="Ночь в особнеке" style="text;html=1;align=center;verticalAlign=middle;whiteSpace=wrap;rounded=0;fontSize=16;" vertex="1" parent="1">
          <mxGeometry x="-840.5" y="139" width="51" height="28" as="geometry" />
        </mxCell>
        <mxCell id="1fAF-ycOyaN2y75xV17Y-32" style="edgeStyle=orthogonalEdgeStyle;rounded=0;orthogonalLoop=1;jettySize=auto;html=1;exitX=0.5;exitY=1;exitDx=0;exitDy=0;entryX=0.5;entryY=0;entryDx=0;entryDy=0;" edge="1" parent="1" source="w8OWX7eUCELfLcuGYtOb-13" target="RejtXPwbg4MbM7y9jDIU-55">
          <mxGeometry relative="1" as="geometry" />
        </mxCell>
        <mxCell id="w8OWX7eUCELfLcuGYtOb-13" value="" style="ellipse;whiteSpace=wrap;html=1;aspect=fixed;" vertex="1" parent="1">
          <mxGeometry x="-870" y="442.5" width="115" height="115" as="geometry" />
        </mxCell>
        <mxCell id="w8OWX7eUCELfLcuGYtOb-14" value="" style="ellipse;whiteSpace=wrap;html=1;aspect=fixed;" vertex="1" parent="1">
          <mxGeometry x="-843" y="459.5" width="39" height="39" as="geometry" />
        </mxCell>
        <mxCell id="w8OWX7eUCELfLcuGYtOb-15" value="8" style="text;html=1;align=center;verticalAlign=middle;whiteSpace=wrap;rounded=0;fontSize=16;" vertex="1" parent="1">
          <mxGeometry x="-850" y="464" width="60" height="30" as="geometry" />
        </mxCell>
        <mxCell id="w8OWX7eUCELfLcuGYtOb-16" value="Всего три капли алкоголя" style="text;html=1;align=center;verticalAlign=middle;whiteSpace=wrap;rounded=0;fontSize=16;" vertex="1" parent="1">
          <mxGeometry x="-838" y="501.5" width="51" height="28" as="geometry" />
        </mxCell>
        <mxCell id="1fAF-ycOyaN2y75xV17Y-28" style="edgeStyle=orthogonalEdgeStyle;rounded=0;orthogonalLoop=1;jettySize=auto;html=1;exitX=0.5;exitY=1;exitDx=0;exitDy=0;entryX=0.5;entryY=0;entryDx=0;entryDy=0;" edge="1" parent="1" source="1fAF-ycOyaN2y75xV17Y-1" target="RejtXPwbg4MbM7y9jDIU-39">
          <mxGeometry relative="1" as="geometry" />
        </mxCell>
        <mxCell id="1fAF-ycOyaN2y75xV17Y-35" style="edgeStyle=orthogonalEdgeStyle;rounded=0;orthogonalLoop=1;jettySize=auto;html=1;exitX=0;exitY=1;exitDx=0;exitDy=0;" edge="1" parent="1" source="1fAF-ycOyaN2y75xV17Y-1">
          <mxGeometry relative="1" as="geometry">
            <mxPoint x="-960.0000000000002" y="259.9999999999999" as="targetPoint" />
            <Array as="points">
              <mxPoint x="-715" y="240" />
              <mxPoint x="-959" y="240" />
              <mxPoint x="-959" y="260" />
            </Array>
          </mxGeometry>
        </mxCell>
        <mxCell id="1fAF-ycOyaN2y75xV17Y-1" value="" style="ellipse;whiteSpace=wrap;html=1;aspect=fixed;" vertex="1" parent="1">
          <mxGeometry x="-732" y="80" width="115" height="115" as="geometry" />
        </mxCell>
        <mxCell id="1fAF-ycOyaN2y75xV17Y-2" value="" style="ellipse;whiteSpace=wrap;html=1;aspect=fixed;" vertex="1" parent="1">
          <mxGeometry x="-705" y="97" width="39" height="39" as="geometry" />
        </mxCell>
        <mxCell id="1fAF-ycOyaN2y75xV17Y-3" value="4" style="text;html=1;align=center;verticalAlign=middle;whiteSpace=wrap;rounded=0;fontSize=16;" vertex="1" parent="1">
          <mxGeometry x="-712" y="101.5" width="60" height="30" as="geometry" />
        </mxCell>
        <mxCell id="1fAF-ycOyaN2y75xV17Y-4" value="Страна чедес" style="text;html=1;align=center;verticalAlign=middle;whiteSpace=wrap;rounded=0;fontSize=16;" vertex="1" parent="1">
          <mxGeometry x="-700" y="139" width="51" height="28" as="geometry" />
        </mxCell>
        <mxCell id="1fAF-ycOyaN2y75xV17Y-30" style="edgeStyle=orthogonalEdgeStyle;rounded=0;orthogonalLoop=1;jettySize=auto;html=1;exitX=0.5;exitY=1;exitDx=0;exitDy=0;entryX=0.5;entryY=0;entryDx=0;entryDy=0;" edge="1" parent="1" source="1fAF-ycOyaN2y75xV17Y-5" target="RejtXPwbg4MbM7y9jDIU-47">
          <mxGeometry relative="1" as="geometry" />
        </mxCell>
        <mxCell id="1fAF-ycOyaN2y75xV17Y-5" value="" style="ellipse;whiteSpace=wrap;html=1;aspect=fixed;" vertex="1" parent="1">
          <mxGeometry x="-1196" y="442.5" width="115" height="115" as="geometry" />
        </mxCell>
        <mxCell id="1fAF-ycOyaN2y75xV17Y-6" value="" style="ellipse;whiteSpace=wrap;html=1;aspect=fixed;" vertex="1" parent="1">
          <mxGeometry x="-1169" y="459.5" width="39" height="39" as="geometry" />
        </mxCell>
        <mxCell id="1fAF-ycOyaN2y75xV17Y-7" value="6" style="text;html=1;align=center;verticalAlign=middle;whiteSpace=wrap;rounded=0;fontSize=16;" vertex="1" parent="1">
          <mxGeometry x="-1176" y="464" width="60" height="30" as="geometry" />
        </mxCell>
        <mxCell id="1fAF-ycOyaN2y75xV17Y-8" value="Ива" style="text;html=1;align=center;verticalAlign=middle;whiteSpace=wrap;rounded=0;fontSize=16;" vertex="1" parent="1">
          <mxGeometry x="-1164" y="501.5" width="51" height="28" as="geometry" />
        </mxCell>
        <mxCell id="1fAF-ycOyaN2y75xV17Y-29" style="edgeStyle=orthogonalEdgeStyle;rounded=0;orthogonalLoop=1;jettySize=auto;html=1;exitX=0.5;exitY=1;exitDx=0;exitDy=0;entryX=0.5;entryY=0;entryDx=0;entryDy=0;" edge="1" parent="1" source="1fAF-ycOyaN2y75xV17Y-9" target="RejtXPwbg4MbM7y9jDIU-43">
          <mxGeometry relative="1" as="geometry" />
        </mxCell>
        <mxCell id="1fAF-ycOyaN2y75xV17Y-9" value="" style="ellipse;whiteSpace=wrap;html=1;aspect=fixed;" vertex="1" parent="1">
          <mxGeometry x="-566" y="70" width="115" height="115" as="geometry" />
        </mxCell>
        <mxCell id="1fAF-ycOyaN2y75xV17Y-10" value="" style="ellipse;whiteSpace=wrap;html=1;aspect=fixed;" vertex="1" parent="1">
          <mxGeometry x="-539" y="87" width="39" height="39" as="geometry" />
        </mxCell>
        <mxCell id="1fAF-ycOyaN2y75xV17Y-11" value="5" style="text;html=1;align=center;verticalAlign=middle;whiteSpace=wrap;rounded=0;fontSize=16;" vertex="1" parent="1">
          <mxGeometry x="-546" y="91.5" width="60" height="30" as="geometry" />
        </mxCell>
        <mxCell id="1fAF-ycOyaN2y75xV17Y-12" value="Девятихвосты Лис" style="text;html=1;align=center;verticalAlign=middle;whiteSpace=wrap;rounded=0;fontSize=16;" vertex="1" parent="1">
          <mxGeometry x="-534" y="129" width="51" height="28" as="geometry" />
        </mxCell>
        <mxCell id="1fAF-ycOyaN2y75xV17Y-31" style="edgeStyle=orthogonalEdgeStyle;rounded=0;orthogonalLoop=1;jettySize=auto;html=1;exitX=0.5;exitY=1;exitDx=0;exitDy=0;entryX=0.5;entryY=0;entryDx=0;entryDy=0;" edge="1" parent="1" source="1fAF-ycOyaN2y75xV17Y-13" target="RejtXPwbg4MbM7y9jDIU-51">
          <mxGeometry relative="1" as="geometry" />
        </mxCell>
        <mxCell id="1fAF-ycOyaN2y75xV17Y-36" style="edgeStyle=orthogonalEdgeStyle;rounded=0;orthogonalLoop=1;jettySize=auto;html=1;exitX=0.5;exitY=0;exitDx=0;exitDy=0;entryX=0.5;entryY=1;entryDx=0;entryDy=0;" edge="1" parent="1" source="1fAF-ycOyaN2y75xV17Y-13" target="RejtXPwbg4MbM7y9jDIU-42">
          <mxGeometry relative="1" as="geometry" />
        </mxCell>
        <mxCell id="1fAF-ycOyaN2y75xV17Y-13" value="" style="ellipse;whiteSpace=wrap;html=1;aspect=fixed;" vertex="1" parent="1">
          <mxGeometry x="-1015.5" y="442.5" width="115" height="115" as="geometry" />
        </mxCell>
        <mxCell id="1fAF-ycOyaN2y75xV17Y-14" value="" style="ellipse;whiteSpace=wrap;html=1;aspect=fixed;" vertex="1" parent="1">
          <mxGeometry x="-988.5" y="459.5" width="39" height="39" as="geometry" />
        </mxCell>
        <mxCell id="1fAF-ycOyaN2y75xV17Y-15" value="7" style="text;html=1;align=center;verticalAlign=middle;whiteSpace=wrap;rounded=0;fontSize=16;" vertex="1" parent="1">
          <mxGeometry x="-995.5" y="464" width="60" height="30" as="geometry" />
        </mxCell>
        <mxCell id="1fAF-ycOyaN2y75xV17Y-16" value="Разбитая посуда" style="text;html=1;align=center;verticalAlign=middle;whiteSpace=wrap;rounded=0;fontSize=16;" vertex="1" parent="1">
          <mxGeometry x="-983.5" y="501.5" width="51" height="28" as="geometry" />
        </mxCell>
        <mxCell id="1fAF-ycOyaN2y75xV17Y-33" style="edgeStyle=orthogonalEdgeStyle;rounded=0;orthogonalLoop=1;jettySize=auto;html=1;exitX=0.5;exitY=1;exitDx=0;exitDy=0;entryX=0.5;entryY=0;entryDx=0;entryDy=0;" edge="1" parent="1" source="1fAF-ycOyaN2y75xV17Y-17" target="RejtXPwbg4MbM7y9jDIU-59">
          <mxGeometry relative="1" as="geometry" />
        </mxCell>
        <mxCell id="1fAF-ycOyaN2y75xV17Y-37" style="edgeStyle=orthogonalEdgeStyle;rounded=0;orthogonalLoop=1;jettySize=auto;html=1;exitX=0.5;exitY=1;exitDx=0;exitDy=0;" edge="1" parent="1" source="1fAF-ycOyaN2y75xV17Y-17" target="RejtXPwbg4MbM7y9jDIU-46">
          <mxGeometry relative="1" as="geometry">
            <Array as="points">
              <mxPoint x="-657" y="570" />
              <mxPoint x="-1125" y="570" />
            </Array>
          </mxGeometry>
        </mxCell>
        <mxCell id="1fAF-ycOyaN2y75xV17Y-17" value="" style="ellipse;whiteSpace=wrap;html=1;aspect=fixed;" vertex="1" parent="1">
          <mxGeometry x="-715" y="414.5" width="115" height="115" as="geometry" />
        </mxCell>
        <mxCell id="1fAF-ycOyaN2y75xV17Y-18" value="" style="ellipse;whiteSpace=wrap;html=1;aspect=fixed;" vertex="1" parent="1">
          <mxGeometry x="-688" y="431.5" width="39" height="39" as="geometry" />
        </mxCell>
        <mxCell id="1fAF-ycOyaN2y75xV17Y-19" value="9" style="text;html=1;align=center;verticalAlign=middle;whiteSpace=wrap;rounded=0;fontSize=16;" vertex="1" parent="1">
          <mxGeometry x="-695" y="436" width="60" height="30" as="geometry" />
        </mxCell>
        <mxCell id="1fAF-ycOyaN2y75xV17Y-20" value="Вечный страник" style="text;html=1;align=center;verticalAlign=middle;whiteSpace=wrap;rounded=0;fontSize=16;" vertex="1" parent="1">
          <mxGeometry x="-683" y="473.5" width="51" height="28" as="geometry" />
        </mxCell>
        <mxCell id="1fAF-ycOyaN2y75xV17Y-34" style="edgeStyle=orthogonalEdgeStyle;rounded=0;orthogonalLoop=1;jettySize=auto;html=1;exitX=0.5;exitY=1;exitDx=0;exitDy=0;entryX=0.5;entryY=0;entryDx=0;entryDy=0;" edge="1" parent="1" source="1fAF-ycOyaN2y75xV17Y-21" target="RejtXPwbg4MbM7y9jDIU-63">
          <mxGeometry relative="1" as="geometry" />
        </mxCell>
        <mxCell id="1fAF-ycOyaN2y75xV17Y-21" value="" style="ellipse;whiteSpace=wrap;html=1;aspect=fixed;" vertex="1" parent="1">
          <mxGeometry x="-539" y="431.5" width="115" height="115" as="geometry" />
        </mxCell>
        <mxCell id="1fAF-ycOyaN2y75xV17Y-22" value="" style="ellipse;whiteSpace=wrap;html=1;aspect=fixed;" vertex="1" parent="1">
          <mxGeometry x="-512" y="448.5" width="39" height="39" as="geometry" />
        </mxCell>
        <mxCell id="1fAF-ycOyaN2y75xV17Y-23" value="10" style="text;html=1;align=center;verticalAlign=middle;whiteSpace=wrap;rounded=0;fontSize=16;" vertex="1" parent="1">
          <mxGeometry x="-519" y="453" width="60" height="30" as="geometry" />
        </mxCell>
        <mxCell id="1fAF-ycOyaN2y75xV17Y-24" value="Кот-Разбойник" style="text;html=1;align=center;verticalAlign=middle;whiteSpace=wrap;rounded=0;fontSize=16;" vertex="1" parent="1">
          <mxGeometry x="-507" y="490.5" width="51" height="28" as="geometry" />
        </mxCell>
      </root>
    </mxGraphModel>
  </diagram>
</mxfile>
